<?xml version="1.0" encoding="UTF-8"?>
<svg style="fill:white background-color: #0C2340"  version="1.1" viewBox="0 0 2048 1137" width="900" height="500" xmlns="http://www.w3.org/2000/svg">
<path transform="translate(0)" d="m0 0h2048v1137h-2048z" fill="#FEFFFF"/>
<path transform="translate(43,343)" d="m0 0h364l1 135v32l-1 25-3 27-6 29-6 20-8 21-12 25-8 14-10 15-12 16-12 14-15 16-13 12-13 11-20 15-18 12-18 11-8 4-16-9-30-20-14-11-11-9-10-9-16-15-11-12-14-17-14-20-13-23-10-21-9-25-7-26-5-30-2-25z" fill="#FEFFFF"/>
<path transform="translate(43,343)" d="m0 0h364l1 135v32l-1 25-3 27-6 29-6 20-8 21-12 25-8 14-10 15-12 16-12 14-15 16-13 12-13 11-20 15-18 12-18 11-8 4-16-9-30-20-14-11-11-9-10-9-16-15-11-12-14-17-14-20-13-23-10-21-9-25-7-26-5-30-2-25zm25 24v161l3 29 5 24 8 26 9 22 12 23 12 18 2 2 6-1h15l13 4 15 5 5 1h14l13-4 11-5 1-1v-24l7 3h14l6-2 1 24 8 4 14 5 4 1h9l14-3 19-7h20l5 1 10-15 10-18 9-19 10-28 6-25 4-27 1-15v-158l-1-1z" fill="#B3944C"/>
<path transform="translate(127,509)" d="m0 0 8 1 19 3h12l20-2h23l12 3 6 1 15-4h22l20 2h12l20-3 8-1 1 13 7 1 1 1v112l-1 1-93 1-6 4h-15l-6-4-93-1-1-3v-110l1-1h8z" fill="#B3944C"/>
<path transform="translate(1031,487)" d="m0 0 19 2 14 4 11 6 5 5 6 9 3 11-1 14-5 10-7 8-11 7-3 1 1 4 6 11 7 11 4 7 9 14 9 11 4 3v2l15 6v4l-2 1h-23l-10-3-10-6-10-10-12-18-9-16-6-10-5-3h-12l-1 2v38l2 14h2l3 3 10 2 1 1v5l-1 1h-60l-2-2 1-5 12-3 3-2 1-4 1-18v-100l-3-5-13-3-1-4 1-2 22-2z" fill="#0D2A4C"/>
<path transform="translate(1668,488)" d="m0 0h46l2 5 4 16 4 9 12 26 8 16 11 24 7 12 10-19 8-17 16-32 9-19 7-20 1-1h43l1 6-5 2-9 2-5 5-1 4v68l1 33 1 12 3 7 2 2 9 2 2 4-1 3h-58l-2-2 1-4 3-2 9-2 3-1v-106l-13 28-14 28-13 28-12 27-3 6-5 1-6-13-7-18-15-33-7-15-9-19-7-17v-2h-2v20l-1 36v44l3 4v2l13 3 1 1v5l-1 1h-47l-1-1v-5l7-2 6-3 3-5 2-11 2-25 1-28 2-33v-18l-3-7-10-4-6-1z" fill="#0D2A4C"/>
<path transform="translate(712,494)" d="m0 0h12l11 3 9 5 6 5 3 4v2h2l8 16 4 12 3 21v10l-2 18-5 16-6 10-7 7-8 5-13 4h-10l-13-3-10-6-7-7-6-8-7-17-3-14-1-8v-24l3-15 5-13 6-8 7-7 8-5z" fill="#FEFFFF"/>
<path transform="translate(1393,497)" d="m0 0h18l15 3 12 5 11 9 1 3h2l7 11 5 16 2 15-1 18-3 14-5 12-8 11-8 7-8 4-14 4h-21l-7-3-3-2v-2h-2l-3-7-1-8v-104l4-4z" fill="#FEFFFF"/>
<path transform="translate(1373,488)" d="m0 0h42l19 3 19 5 14 8 8 6v2h2l8 10 7 14 4 17v19l-4 16-8 16-11 12-10 8-17 8-19 5-8 1-26 1-17-1h-37l-1-1v-5l5-2 9-3 2-4 1-14v-104l-3-6-11-3-1-5 1-1zm20 9-9 3-2 5v104l2 8 2 5h2v2l6 4 4 1h21l14-4 9-5 9-8 7-11 4-10 3-14 1-18-2-15-5-16-7-11h-2l-2-4-10-8-12-5-15-3z" fill="#0D2A4C"/>
<path transform="translate(713,485)" d="m0 0h15l18 3 14 5 11 7 5 4 4 4v2h2l7 10 5 10 5 15 2 19-3 20-4 12-7 12-10 12h-2v2l-14 9-8 4-14 4-16 2-21-2-16-5-14-7-13-12-6-8-7-14-4-15-1-11v-10l2-14 6-15 7-12 3-4h2l2-4 13-11 16-8 13-3zm-1 9-13 4-9 7-7 7-7 14-3 14-1 5v26l3 16 4 12 6 12 12 13 12 6 12 2h8l13-4 9-6 7-7 7-14 4-17 1-12v-10l-3-21-5-15-7-13h-2l-2-4-5-5-5-4-8-4-9-2z" fill="#0D2A4C"/>
<path transform="translate(241,519)" d="m0 0h25l10 1h30l10-1v100l-9 3-8 1h-18l-11-1h-28l-12 3-1-62v-36l2-5z" fill="#FDFEFE"/>
<path transform="translate(135,519)" d="m0 0 8 1h31l10-1h25l11 3 1 1v102l-13-3h-27l-12 1h-18l-15-3-1-1z" fill="#FDFEFD"/>
<path transform="translate(199,383)" d="m0 0h53l-2 5-9 16-1 49 62-1 21-10h1v48l-20-10-64-1v25l-8 3-9 1-11-4-1-1v-24h-61l-7 3-11 6-5 2v-49l15 8 5 3h64l-1-48-11-20z" fill="#B3944C"/>
<path transform="translate(462,488)" d="m0 0h43l7 11 4 5v2h2l2 5h2l2 5h2l4 5v2h2l5 6v2h2l7 8 4 5 13 13v2h2l9 11 7 7 7 8 4 5 4 3v-72l-2-16-3-6-6-3-9-2-1-5 1-1h51l1 5-15 6-2 7-1 5-2 81v47l-3 2h-5l-6-7v-2h-2l-9-11-9-10-7-8v-2h-2l-6-7v-2h-2l-12-15-5-5-9-10v-2h-2l-9-11-6-7-5-5-11-12v-2h-2l1 86 2 13 5 5 3 2 10 2v6h-51v-6l12-4 3-2 2-14 1-36v-50l-1-14-4-8-3-3-15-6v-5z" fill="#0D2A4C"/>
<path transform="translate(1581,485)" d="m0 0 3 1 4 10 5 17 7 19 7 21 8 23 12 36 4 10 2 4h2v2l9 2 4 2 1 3-2 3h-56l-2-5 5-3 7-2 1-2-12-38-3-5h-41l-6 16-7 21-1 7 5 2 9 2 1 4-2 3h-46l-1-1v-5l5-2 8-2 5-4 6-13 6-16 8-21 10-26 6-15 6-16 5-13 1-7 10-7z" fill="#0E2A4C"/>
<path transform="translate(1157,487)" d="m0 0h83l2 1 3 22v9l-6 1-3-5-3-9-5-5-6-2-8-1h-28l-3 1-1 2v53h24l10-1 4-2 4-14 6-1 1 1v47h-6l-2-4-2-8-3-5-14-2h-22v46l2 9 2 4 7 2 9 1h12l16-2 9-3 8-9 5-10h6l1 3-3 14-6 17h-116v-6l16-3 3-1 1-6 1-32-1-83-1-7h-2v-2l-12-3-1-5 1-1z" fill="#0E2B4C"/>
<path transform="translate(1903,487)" d="m0 0h67l19 1 3 27-1 4-1 1h-5l-6-15-4-4-7-2-8-1h-28l-3 2v53l2 1h21l11-1 4-4 3-11 2-2 5 1v47h-6l-6-16-6-2h-30l-1 1v41l2 12 5 5 9 2h22l13-2 8-4 5-6 7-12h5l1 1-1 9-6 20-3 5h-114l-1-1v-5l1-1 16-3 3-6 1-8v-103l-2-11-4-3-10-3v-6z" fill="#0E2A4C"/>
<path transform="translate(825,482)" d="m0 0 4 2 4 4h105l6-3 1-2h5l-1 11-2 26-4 1-3-1-4-13-5-5-6-2-8-1h-14l-6 1-1 42v69l1 9 3 6 4 3 11 2 2 1v5l-1 1h-67l-2-2 1-4 6-2 10-2 4-4 1-3v-120l-1-2h-22l-9 2-6 4-5 6-3 6-2 2-6-1 1-7 7-27z" fill="#0D2A4C"/>
<path transform="translate(1151,342)" d="m0 0h37l13 3 8 5 5 8 1 9-2 9-5 7-11 6 2 4 4 7 4 6v2h2l3 4v2h2l7 8 11 6 2 1v2l-3 1h-14l-10-4-10-10-8-11-8-13-12-2v27l1 5 12 2 1 5-3 1-41-1v-4l9-4 2-1 1-3v-69l-9-2-2-4 1-1z" fill="#0E2A4C"/>
<path transform="translate(1827,345)" d="m0 0h8l10 3 10 9 5 10 3 10 1 6v10l-2 12-4 10-5 6-12 6-9 1-10-2-10-7-6-8-4-10-2-11v-12l3-14 6-10 5-4 8-4z" fill="#FEFFFF"/>
<path transform="translate(218,696)" d="m0 0h15l16 5 15 5h15l12-3 16-6h6l-3 5-22 22-6 4-4 1h-15l-12-4-14-5-8-1h-9l-10 2-18 7-5 1h-15l-8-4-13-12-8-8-6-8 10 1 16 6 8 2h16l12-4 14-5z" fill="#FEFFFF"/>
<path transform="translate(1823,339)" d="m0 0h20l12 4 8 4 7 6 7 11 3 7 2 11-1 14-4 11-5 8-8 8-16 8-5 1h-23l-12-4-11-7-8-9-4-9-3-12v-9l3-12 6-12 5-6 10-7 9-4zm4 6-10 3-5 3-7 9-4 11-1 7v12l3 14 6 12 8 7 8 4 10 1 9-2 10-6 5-7 4-12 1-8v-10l-3-13-5-12-8-8-8-4-11-1z" fill="#0D2A4C"/>
<path transform="translate(638,341)" d="m0 0 4 2 11 14 5 5 9 10 25 25 4 5 3 1v-26l-1-19-2-6-3-3-9-2-1-5h36l1 2-3 3-7 2-3 8-1 75-5-1-14-14-7-8-8-9-12-12-7-8-15-15-2-1 1 49 2 8 4 3 9 1v5h-36l-1-4 10-3 2-6 1-10v-51l-3-5-12-6v-3z" fill="#0D2A4C"/>
<path transform="translate(1009,342)" d="m0 0h68l2 20-5 1-4-9-2-3-9-2h-20l-2 4v28l23-1 4-9 1-2h4v30l-4 1-5-10-2-1-21-1v28l2 6 7 2h20l8-3 6-8 2-5h5v7l-4 13-2 3-8 1h-67l-1-5 12-3 2-1 1-5v-66l-5-3-6-4z" fill="#0D2A4C"/>
<path transform="translate(463,342)" d="m0 0h42l-1 4-10 5-2 3v48l2 9 6 9 5 4 11 2 10-1 6-3 5-5 4-8 2-18v-22l-2-16-3-3-9-4-1-2 1-2h35v5l-9 3-2 2-1 4-2 50-3 10-7 9-5 4-9 4-8 1h-17l-13-5-6-5-5-9-2-10v-50l-1-4-5-2-6-3-1-3z" fill="#0E2A4C"/>
<path transform="translate(1021,497)" d="m0 0h12l9 3 7 4 7 10 3 9v16l-3 10-7 8-8 4-4 1h-20l-1-4v-55l2-5z" fill="#FEFFFF"/>
<path transform="translate(1620,342)" d="m0 0h37v4l-6 3 1 7 10 19 5 9v2l4-4 6-11 6-10 4-9v-3l-7-3v-4h32l1 2-2 3-9 3-5 5-21 35-2 5v25l3 4 10 2 1 5h-45l-1-4 7-2 7-3 1-4v-9l-3-16-14-27-7-12-6-5-8-3z" fill="#0D2A4C"/>
<path transform="translate(1922,342)" d="m0 0h67v21l-4 1-6-12-7-3h-22l-1 6v26h23l3-3 4-8h3v31h-3l-6-11-24-1v29l2 6 13 2v5h-45l1-5 12-3v-70l-3-3-7-3z" fill="#0D2A4C"/>
<path transform="translate(861,342)" d="m0 0h39l1 3-1 2-7 3-1 2 6 16 7 15 9 21 1 5h2l2-6 14-31 6-16 1-6-7-2-2-2 1-4h32l1 3-3 3-8 3-6 9-7 15-16 35-9 22-1 2-5-1-9-22-7-15-11-24-7-16-4-5-11-5z" fill="#0E2A4C"/>
<path transform="translate(1306,340)" d="m0 0h11l16 3 2 7v14l-4 1-7-14-5-2-3-1h-11l-8 5-1 2v8l3 6 8 6 18 10 7 7 4 9 1 4v8l-2 7-7 8-10 5-15 2-13-2-10-5-4-13v-7l4-2 3 5 5 8v2l4 2v2l9 3h9l8-2v-2h2l2-8-1-8-3-5v-2l-5-2-10-7-11-7-7-7-3-6v-12l4-9 5-5 10-5z" fill="#0E2A4C"/>
<path transform="translate(1490,339)" d="m0 0 4 1 1 2h74l3-3h3l-2 25h-4l-4-10-4-3-3-1-20-1v56l1 17 4 3 11 3-2 4h-45l1-5 10-2 3-1 1-5 1-70h-11l-11 1-5 3-5 7-3 5-4-2 5-23z" fill="#0D2A4C"/>
<path transform="translate(1392,342)" d="m0 0h43l1 2-2 3-8 3-4 1v69l4 4 9 3-1 5-42-1v-4l12-4 1-3v-67l-5-4-8-3z" fill="#0D2A4C"/>
<path transform="translate(773,342)" d="m0 0h43l-1 4-10 5h-2l-1 6v59l1 7 10 3 3 2v3l-11 1-32-1-1-4 12-4 1-2 1-43v-19l-1-7-5-3-7-3z" fill="#0D2A4C"/>
<path transform="translate(110,378)" d="m0 0 2 1 6 18 13-2 8-1-6 8-7 7 1 4 7 7 5 7-13-2-9-2-1 7-4 12h-3l-5-17v-2l-22 4 2-4 10-11-1-4-7-8-4-6 8 1 14 3 3-12z" fill="#B3944C"/>
<path transform="translate(1170,348)" d="m0 0h13l9 5v2h2l3 7v12l-3 6-6 5-5 1h-14l-2-1v-35z" fill="#FEFFFF"/>
<path transform="translate(1567,522)" d="m0 0 3 2 13 38 2 9-7 1h-27l-1-4 11-31z" fill="#FEFFFF"/>
<path transform="translate(220,743)" d="m0 0h12l13 4 6 3-2 4-22 14-4-1-17-10-7-5 4-4 11-4z" fill="#FEFFFF"/>
<path transform="translate(110,394)" d="m0 0 3 3 2 6 10-1-2 4-2 3h-2l3 5 4 5-12-1-1 6-2 3h-2l-2-8h-10l2-4 4-6-4-2-3-5 8 1 3 1z" fill="#FEFFFF"/>
<path transform="translate(298,547)" d="m0 0 5 1 3 5-1 7-3 4-5-1-3-5v-6l2-4z" fill="#FEFFFF"/>
<path transform="translate(151,578)" d="m0 0h12l4 5v8l-5 5-3-1 3-3v-9l-3-3h-4l-1 16h-3z" fill="#B3944C"/>
<path transform="translate(296,546)" d="m0 0h8l4 5 1 6-3 6-5 3-5-1-4-3-1-3v-8zm2 1-3 3-1 2v6l4 6 5-1 3-5-1-7-4-4z" fill="#B3944C"/>
<path transform="translate(272,546)" d="m0 0h11l5 5 1 5-3 6-3 2-3-1h2l2-9-3-5h-5v16l-3-1z" fill="#B3944C"/>
<path transform="translate(256,546)" d="m0 0h11l-1 3-6-1-1 7 7-1v3h-6v6h8l-2 3h-11z" fill="#B3944C"/>
<path transform="translate(259,578)" d="m0 0h10l3 3-1 6-5 2 2-3v-5h-4v16l-4-1z" fill="#B3944C"/>
<path transform="translate(200,546)" d="m0 0h2l6 17v2l-4-1-2-5h-7l1-5z" fill="#BFA569"/>
<path transform="translate(241,546)" d="m0 0h10l-1 3h-8l-1 2v8l3 3h5l3-2-2 4h-8l-5-4-1-8 3-5z" fill="#B3944C"/>
<path transform="translate(170,578)" d="m0 0h4v11l2 6h5l2-4v-13h3l-1 15-4 5h-6l-4-5z" fill="#B3944C"/>
<path transform="translate(245,578)" d="m0 0h8v3l-6-1v4l7 6-1 5-3 3-5-1-3-3h3l5 1v-4l-6-5-1-5z" fill="#B3944C"/>
<path transform="translate(191,578)" d="m0 0h6l-1 17 9-1-2 3h-11v-17z" fill="#B3944C"/>
<path transform="translate(295,578)" d="m0 0h7v3l-7-1 3 5 5 4-1 7-5 2 3-5-4-5-4-4 2-5z" fill="#B3944C"/>
<path transform="translate(182,546)" d="m0 0h10l1 3-7-1v17h-5z" fill="#B3944C"/>
<path transform="translate(276,578)" d="m0 0h11l1 2h-8l-1 7 7-1-1 3-6-1 2 8h-6l1-4z" fill="#B3944C"/>
<path transform="translate(144,546)" d="m0 0h5l4 10v2l3-1-2 7h-2l-7-16z" fill="#B3944C"/>
<path transform="translate(167,546)" d="m0 0h4v19l-4-1z" fill="#B3944C"/>
</svg>
